<svg width="1312" height="233" viewBox="0 0 1312 233" fill="none" xmlns="http://www.w3.org/2000/svg">
<rect width="232.5" height="232.5" rx="33.2143" fill="white"/>
<path d="M88.4062 140.818L164.516 96.9002C171.553 92.8401 180.548 95.2528 184.608 102.289L191.96 115.029L128.59 151.596C114.517 159.716 96.5265 154.89 88.4062 140.818V140.818Z" fill="#4A5FE0"/>
<path d="M143.553 91.4805L67.4427 135.398C60.4064 139.458 51.411 137.046 47.3509 130.009L39.9994 117.269L103.369 80.7028C117.442 72.5825 135.433 77.4079 143.553 91.4805V91.4805Z" fill="#4A5FE0"/>
<path d="M309.388 63.8767C311.202 63.6951 312.586 63.9446 313.538 64.6256C314.491 65.3066 314.967 66.3735 314.967 67.8262C314.967 70.641 313.425 72.1849 310.34 72.4572L306.394 72.7295C301.222 73.0926 297.366 74.6589 294.826 77.4285C292.285 80.1976 290.789 84.352 290.335 89.8906L290.063 93.7043H304.897C306.348 93.7043 307.46 94.0901 308.231 94.8619C309.002 95.6337 309.388 96.6554 309.388 97.9266C309.388 99.2886 308.979 100.378 308.163 101.195C307.346 102.013 306.167 102.421 304.625 102.421H289.382L285.163 155.402C285.073 157.127 284.483 158.444 283.395 159.352C282.306 160.26 280.99 160.714 279.448 160.714C277.905 160.714 276.612 160.26 275.569 159.352C274.526 158.444 274.05 157.127 274.14 155.402L278.359 102.421H269.241C267.789 102.421 266.678 102.035 265.907 101.263C265.136 100.491 264.75 99.4701 264.75 98.1989C264.75 96.8369 265.158 95.7472 265.975 94.9299C266.791 94.1129 268.016 93.7043 269.649 93.7043H279.039L279.176 91.2526C279.81 82.4449 282.396 75.8394 286.933 71.4355C291.469 67.0317 298.047 64.5577 306.666 64.0126L309.388 63.8767Z" fill="white"/>
<path d="M322.858 160.714C321.316 160.714 320.046 160.259 319.048 159.352C318.05 158.443 317.596 157.081 317.687 155.265L324.627 68.3704C324.718 66.6449 325.353 65.3514 326.533 64.4888C327.712 63.6259 329.073 63.1948 330.616 63.1948C332.158 63.1948 333.405 63.6259 334.358 64.4888C335.311 65.3514 335.742 66.6449 335.651 68.3704L328.71 155.265C328.619 157.081 328.007 158.443 326.873 159.352C325.739 160.259 324.401 160.714 322.858 160.714Z" fill="white"/>
<path d="M401.929 92.3452C403.562 92.3452 404.855 92.8219 405.808 93.7752C406.76 94.7284 407.146 96.0681 406.965 97.7931L402.338 155.678C402.247 157.221 401.635 158.447 400.5 159.355C399.366 160.263 398.028 160.717 396.486 160.717C394.943 160.717 393.719 160.286 392.811 159.423C391.904 158.561 391.496 157.358 391.587 155.814L392.131 149.276C389.863 152.999 386.823 155.882 383.013 157.925C379.202 159.968 374.938 160.99 370.22 160.99C362.872 160.99 357.292 159.06 353.481 155.201C349.671 151.342 347.766 145.69 347.766 138.244C347.766 136.61 347.811 135.384 347.901 134.567L350.759 97.7931C350.941 96.0681 351.599 94.7284 352.733 93.7752C353.867 92.8219 355.205 92.3452 356.748 92.3452C358.381 92.3452 359.674 92.8219 360.626 93.7752C361.579 94.7284 361.964 96.0681 361.783 97.7931L358.925 133.886C358.834 134.521 358.789 135.475 358.789 136.746C358.789 146.734 363.552 151.728 373.078 151.728C378.975 151.728 383.693 149.912 387.232 146.28C390.77 142.648 392.766 137.609 393.219 131.162L395.941 97.7931C396.123 96.0681 396.781 94.7284 397.915 93.7752C399.049 92.8219 400.387 92.3452 401.929 92.3452Z" fill="white"/>
<path d="M430.916 128.57V129.115C430.916 136.379 432.708 142.008 436.292 146.003C439.875 149.998 445.069 151.996 451.874 151.996C459.041 151.996 465.347 149.998 470.79 146.003C471.698 145.368 472.605 145.05 473.512 145.05C474.601 145.05 475.486 145.459 476.166 146.276C476.847 147.093 477.187 148.046 477.187 149.136C477.187 150.771 476.461 152.269 475.009 153.631C472.56 155.81 469.135 157.581 464.734 158.943C460.334 160.305 455.866 160.986 451.33 160.986C441.712 160.986 434.069 158.08 428.398 152.269C422.728 146.458 419.893 138.649 419.893 128.842C419.893 121.579 421.231 115.177 423.907 109.638C426.584 104.099 430.395 99.7864 435.339 96.6994C440.284 93.6124 446.022 92.0688 452.554 92.0688C461.446 92.0688 468.25 94.7244 472.968 100.036C477.686 105.348 480.045 113.044 480.045 123.122C480.045 124.847 479.591 126.187 478.684 127.14C477.776 128.093 476.552 128.57 475.009 128.57H430.916ZM452.963 100.649C446.884 100.649 442.03 102.442 438.401 106.029C434.772 109.616 432.458 114.769 431.461 121.488H470.11C470.382 114.678 468.998 109.502 465.959 105.961C462.92 102.42 458.588 100.649 452.963 100.649Z" fill="white"/>
<path d="M530.667 92.0688C538.107 92.0688 543.777 94.021 547.679 97.9254C551.579 101.83 553.53 107.504 553.53 114.95C553.53 116.584 553.485 117.81 553.394 118.627L550.536 155.265C550.355 157.081 549.72 158.443 548.631 159.351C547.542 160.259 546.227 160.713 544.684 160.713C542.961 160.713 541.623 160.259 540.67 159.351C539.717 158.443 539.331 157.081 539.513 155.265L542.371 119.308C542.462 118.673 542.507 117.72 542.507 116.449C542.507 106.37 537.653 101.33 527.945 101.33C521.776 101.33 516.877 103.169 513.248 106.846C509.619 110.524 507.532 115.586 506.987 122.032L504.266 155.265C504.175 157.081 503.585 158.443 502.496 159.351C501.408 160.259 500.047 160.713 498.414 160.713C496.781 160.713 495.488 160.259 494.535 159.351C493.583 158.443 493.152 157.081 493.242 155.265L498.005 97.5168C498.097 95.8825 498.709 94.6113 499.843 93.7031C500.977 92.795 502.315 92.3412 503.857 92.3412C505.4 92.3412 506.625 92.795 507.532 93.7031C508.439 94.6113 508.847 95.8369 508.757 97.3804L508.212 103.918C510.48 100.195 513.565 97.2896 517.467 95.2015C521.368 93.1129 525.768 92.0688 530.667 92.0688Z" fill="white"/>
<path d="M586.869 136.062C586.779 136.698 586.734 137.606 586.734 138.786C586.734 143.145 587.731 146.459 589.728 148.729C591.723 150.999 594.536 152.134 598.165 152.134C599.344 152.134 600.478 152.066 601.567 151.93C602.656 151.793 603.473 151.725 604.017 151.725C604.924 151.725 605.673 152.088 606.262 152.815C606.852 153.541 607.147 154.54 607.147 155.811C607.147 157.718 606.353 159.057 604.765 159.829C603.178 160.601 600.388 160.987 596.396 160.987C589.863 160.987 584.783 159.125 581.154 155.402C577.525 151.68 575.71 146.413 575.71 139.603C575.71 138.332 575.755 137.333 575.846 136.607L578.432 102.421H569.45C567.998 102.421 566.887 102.035 566.116 101.263C565.345 100.491 564.959 99.4702 564.959 98.199C564.959 96.7462 565.39 95.6338 566.252 94.862C567.114 94.0903 568.316 93.7044 569.858 93.7044H579.112L580.337 78.1776C580.519 76.634 581.131 75.3856 582.174 74.4323C583.218 73.4786 584.556 73.002 586.189 73.002C587.913 73.002 589.251 73.5014 590.204 74.5003C591.156 75.4992 591.542 76.8156 591.36 78.4499L590.136 93.7044H605.106C606.466 93.7044 607.555 94.0903 608.372 94.862C609.188 95.6338 609.597 96.6555 609.597 97.9267C609.597 99.3794 609.188 100.491 608.372 101.263C607.555 102.035 606.376 102.421 604.834 102.421H589.455L586.869 136.062Z" fill="white"/>
<path d="M1293.91 95.8379H1311.75L1288.22 160.5C1284.85 169.811 1280.37 176.536 1274.77 180.675C1269.25 184.899 1262.35 186.796 1254.07 186.365V170.846C1258.56 170.932 1262.09 169.984 1264.68 168.001C1267.35 166.018 1269.46 162.828 1271.02 158.431L1244.5 95.8379H1262.74L1279.55 139.291L1293.91 95.8379Z" fill="white"/>
<path d="M1238.59 111.874H1223.98V138.774C1223.98 141.015 1224.54 142.653 1225.66 143.688C1226.78 144.722 1228.42 145.326 1230.58 145.498C1232.73 145.585 1235.4 145.542 1238.59 145.369V160.5C1227.13 161.793 1219.02 160.716 1214.28 157.267C1209.63 153.818 1207.3 147.654 1207.3 138.774V111.874H1196.05V95.8378H1207.3V82.7761L1223.98 77.7324V95.8378H1238.59V111.874Z" fill="white"/>
<path d="M1177.93 88.0782C1175.17 88.0782 1172.76 87.0867 1170.69 85.1038C1168.71 83.0346 1167.71 80.6205 1167.71 77.8616C1167.71 75.1027 1168.71 72.6886 1170.69 70.6194C1172.76 68.5502 1175.17 67.5156 1177.93 67.5156C1180.78 67.5156 1183.19 68.5502 1185.17 70.6194C1187.24 72.6886 1188.28 75.1027 1188.28 77.8616C1188.28 80.6205 1187.24 83.0346 1185.17 85.1038C1183.19 87.0867 1180.78 88.0782 1177.93 88.0782ZM1169.65 160.5V95.8377H1186.34V160.5H1169.65Z" fill="white"/>
<path d="M1130.97 94.0273C1138.04 94.0273 1143.86 96.3983 1148.43 101.14C1153.08 105.882 1155.41 112.435 1155.41 120.797V160.5H1138.73V122.867C1138.73 118.556 1137.56 115.28 1135.24 113.038C1132.91 110.71 1129.8 109.546 1125.92 109.546C1121.61 109.546 1118.16 110.883 1115.58 113.555C1112.99 116.228 1111.7 120.237 1111.7 125.583V160.5H1095.02V95.8379H1111.7V103.08C1115.75 97.0449 1122.17 94.0273 1130.97 94.0273Z" fill="white"/>
<path d="M1063.05 95.8379H1079.74V160.5H1063.05V153.258C1059 159.293 1052.58 162.311 1043.78 162.311C1036.71 162.311 1030.85 159.94 1026.2 155.198C1021.63 150.456 1019.34 143.903 1019.34 135.54V95.8379H1036.02V133.471C1036.02 137.782 1037.19 141.101 1039.52 143.429C1041.84 145.671 1044.95 146.792 1048.83 146.792C1053.14 146.792 1056.59 145.455 1059.17 142.783C1061.76 140.11 1063.05 136.101 1063.05 130.755V95.8379Z" fill="white"/>
<path d="M981.764 94.0273C989.179 94.0273 995.085 96.4414 999.482 101.27C1003.97 106.098 1006.21 112.564 1006.21 120.668V160.5H989.524V121.832C989.524 117.952 988.576 114.935 986.679 112.779C984.782 110.624 982.109 109.546 978.661 109.546C974.867 109.546 971.893 110.796 969.737 113.297C967.668 115.797 966.634 119.418 966.634 124.16V160.5H949.951V121.832C949.951 117.952 949.002 114.935 947.106 112.779C945.209 110.624 942.536 109.546 939.087 109.546C935.38 109.546 932.406 110.796 930.164 113.297C928.009 115.797 926.931 119.418 926.931 124.16V160.5H910.248V95.8379H926.931V102.692C930.811 96.9156 936.803 94.0273 944.907 94.0273C952.839 94.0273 958.702 97.1311 962.495 103.339C966.806 97.1311 973.229 94.0273 981.764 94.0273Z" fill="white"/>
<path d="M871.637 94.0273C879.052 94.0273 884.958 96.4414 889.355 101.27C893.838 106.098 896.08 112.564 896.08 120.668V160.5H879.397V121.832C879.397 117.952 878.449 114.935 876.552 112.779C874.655 110.624 871.982 109.546 868.534 109.546C864.74 109.546 861.766 110.796 859.61 113.297C857.541 115.797 856.507 119.418 856.507 124.16V160.5H839.824V121.832C839.824 117.952 838.875 114.935 836.979 112.779C835.082 110.624 832.409 109.546 828.96 109.546C825.253 109.546 822.279 110.796 820.037 113.297C817.882 115.797 816.804 119.418 816.804 124.16V160.5H800.121V95.8379H816.804V102.692C820.684 96.9156 826.676 94.0273 834.78 94.0273C842.712 94.0273 848.575 97.1311 852.368 103.339C856.679 97.1311 863.102 94.0273 871.637 94.0273Z" fill="white"/>
<path d="M778.427 152.482C771.789 159.034 763.684 162.311 754.114 162.311C744.544 162.311 736.44 159.034 729.801 152.482C723.249 145.843 719.973 137.739 719.973 128.169C719.973 118.599 723.249 110.538 729.801 103.985C736.44 97.3467 744.544 94.0273 754.114 94.0273C763.684 94.0273 771.789 97.3467 778.427 103.985C785.066 110.538 788.385 118.599 788.385 128.169C788.385 137.739 785.066 145.843 778.427 152.482ZM741.57 140.972C744.932 144.335 749.114 146.016 754.114 146.016C759.115 146.016 763.296 144.335 766.659 140.972C770.021 137.61 771.702 133.342 771.702 128.169C771.702 122.996 770.021 118.728 766.659 115.366C763.296 112.003 759.115 110.322 754.114 110.322C749.114 110.322 744.932 112.003 741.57 115.366C738.294 118.728 736.656 122.996 736.656 128.169C736.656 133.342 738.294 137.61 741.57 140.972Z" fill="white"/>
<path d="M673.842 162.31C660.219 162.31 648.968 157.784 640.088 148.731C631.208 139.679 626.768 128.514 626.768 115.236C626.768 101.873 631.208 90.7077 640.088 81.7412C648.968 72.6885 660.219 68.1621 673.842 68.1621C682.032 68.1621 689.576 70.102 696.473 73.9817C703.457 77.7752 708.889 82.9482 712.768 89.5006L697.379 98.424C695.137 94.3719 691.947 91.225 687.809 88.9833C683.67 86.6555 679.015 85.4916 673.842 85.4916C665.048 85.4916 657.935 88.2505 652.503 93.7683C647.158 99.2862 644.485 106.442 644.485 115.236C644.485 123.944 647.158 131.057 652.503 136.575C657.935 142.093 665.048 144.851 673.842 144.851C679.015 144.851 683.67 143.731 687.809 141.489C692.033 139.161 695.223 136.014 697.379 132.048L712.768 140.972C708.889 147.524 703.5 152.74 696.603 156.62C689.705 160.414 682.118 162.31 673.842 162.31Z" fill="white"/>
</svg>
